<svg data-v-0dd9719b="" version="1.0" xmlns="http://www.w3.org/2000/svg" xmlns:xlink="http://www.w3.org/1999/xlink" width="100%" height="100%" viewBox="0 0 340.000000 250.000000" preserveAspectRatio="xMidYMid meet" color-interpolation-filters="sRGB" style="margin: auto;"> <rect data-v-0dd9719b="" x="0" y="0" width="100%" height="100%" fill="#ffffff" fill-opacity="1" class="background"></rect> <rect data-v-0dd9719b="" x="0" y="0" width="100%" height="100%" fill="url(#watermark)" fill-opacity="1" class="watermarklayer"></rect> <g data-v-0dd9719b="" fill="#fbbc09" class="icon-text-wrapper icon-svg-group iconsvg" transform="translate(47.26000213623047,94.94560241699219)"><g class="iconsvg-imagesvg" transform="translate(0,0)"><g><rect fill="#fbbc09" fill-opacity="0" stroke-width="2" x="0" y="0" width="60" height="60.1087969224296" class="image-rect"></rect> <svg filter="url(#colors756539697)" x="0" y="0" width="60" height="60.1087969224296" filtersec="colorsf6765718117" class="image-svg-svg primary" style="overflow: visible;"><svg xmlns="http://www.w3.org/2000/svg" viewBox="-1 -1 59.1 59.2"><path d="M56.1 28.6c0 15.2-12.3 27.6-27.6 27.6S1 43.8 1 28.6C1 13.4 13.3 1 28.6 1s27.5 12.4 27.5 27.6zM28.6 49C39.9 49 49 39.9 49 28.6m0 0V10.1M28.6 8.2c-11.3 0-20.4 9.1-20.4 20.4m-.1 0v18.5M41.9 4.5v24.1c0 7.4-6 13.4-13.4 13.4V15.3c-7.4 0-13.4 6-13.4 13.4v24.1" fill="none" stroke="#282828" stroke-width="2" stroke-miterlimit="10"></path></svg></svg> <defs><filter id="colors756539697"><feColorMatrix type="matrix" values="0 0 0 0 0.19921875  0 0 0 0 0.19921875  0 0 0 0 0.19921875  0 0 0 1 0" class="icon-fecolormatrix"></feColorMatrix></filter> <filter id="colorsf6765718117"><feColorMatrix type="matrix" values="0 0 0 0 0.99609375  0 0 0 0 0.99609375  0 0 0 0 0.99609375  0 0 0 1 0" class="icon-fecolormatrix"></feColorMatrix></filter> <filter id="colorsb1711959344"><feColorMatrix type="matrix" values="0 0 0 0 0  0 0 0 0 0  0 0 0 0 0  0 0 0 1 0" class="icon-fecolormatrix"></feColorMatrix></filter></defs></g></g> <g transform="translate(67,17.009397506713867)"><g data-gra="path-name" fill-rule="" class="tp-name iconsvg-namesvg"><g transform="scale(1)"><g><path d="M22.37-18.02L15.74-18.02Q15.86-18.62 15.86-19.65L15.86-19.65Q15.86-20.25 15.78-20.83 15.7-21.41 15.5-21.87 15.3-22.33 14.9-22.59 14.5-22.85 13.86-22.85L13.86-22.85Q13.14-22.85 12.54-22.53 11.94-22.21 11.48-21.71 11.03-21.21 10.77-20.55 10.51-19.89 10.51-19.17L10.51-19.17Q10.51-18.14 11.05-17.58 11.58-17.02 12.46-16.66 13.34-16.3 14.46-16.06 15.58-15.82 16.78-15.5L16.78-15.5Q17.78-15.22 18.77-14.78 19.77-14.34 20.55-13.6 21.33-12.86 21.81-11.68 22.29-10.51 22.29-8.75L22.29-8.75Q22.29-6.23 21.29-4.51 20.29-2.8 18.54-1.72 16.78-0.64 14.36-0.16 11.94 0.32 9.11 0.32L9.11 0.32Q6.23 0.32 4.41-0.06 2.6-0.44 1.56-0.88L1.56-0.88Q0.32-1.4-0.28-2.08L-0.28-2.08 1.08-7.55 8.11-7.55Q8.07-7.19 8.03-6.57 7.99-5.95 7.99-5.59L7.99-5.59Q7.99-5.11 8.11-4.59 8.23-4.07 8.49-3.64 8.75-3.2 9.23-2.92 9.71-2.64 10.43-2.64L10.43-2.64Q11.23-2.64 11.84-3 12.46-3.36 12.88-3.89 13.3-4.43 13.52-5.09 13.74-5.75 13.74-6.39L13.74-6.39Q13.74-7.27 13.32-7.87 12.9-8.47 12.18-8.89 11.46-9.31 10.53-9.61 9.59-9.91 8.59-10.23L8.59-10.23Q7.63-10.51 6.57-10.91 5.51-11.3 4.63-12.02 3.75-12.74 3.18-13.84 2.6-14.94 2.6-16.66L2.6-16.66Q2.6-19.21 3.89-20.95 5.19-22.69 7.17-23.77 9.15-24.85 11.5-25.31 13.86-25.77 15.98-25.77L15.98-25.77Q18.77-25.77 20.79-25.11 22.81-24.45 23.85-23.57L23.85-23.57 22.37-18.02ZM39.87-25.77L39.87-25.77Q43.3-25.77 45.44-24.89 47.58-24.01 48.81-22.17L48.81-22.17Q49.61-20.93 50.05-19.37 50.49-17.82 50.49-15.78L50.49-15.78Q50.49-14.02 50.17-12.26 49.85-10.51 49.27-8.89 48.7-7.27 47.88-5.85 47.06-4.43 46.06-3.36L46.06-3.36Q44.18-1.32 41.72-0.5 39.27 0.32 35.67 0.32L35.67 0.32Q32.2 0.32 30.08-0.4 27.96-1.12 26.72-2.72L26.72-2.72Q25.85-3.83 25.35-5.55 24.85-7.27 24.85-9.87L24.85-9.87Q24.85-14.3 26.42-17.8 28-21.29 30.92-23.33L30.92-23.33Q32.68-24.57 34.83-25.17 36.99-25.77 39.87-25.77ZM35.35-2.48L35.35-2.48Q36.27-2.48 37.09-3.3 37.91-4.11 38.61-5.49 39.31-6.87 39.89-8.63 40.47-10.39 40.87-12.26 41.26-14.14 41.48-16 41.7-17.86 41.7-19.37L41.7-19.37Q41.7-21.45 41.28-22.23 40.87-23.01 40.07-23.01L40.07-23.01Q39.15-23.01 38.31-22.21 37.47-21.41 36.73-20.07 35.99-18.74 35.41-17 34.83-15.26 34.41-13.42 33.99-11.58 33.77-9.79 33.56-7.99 33.56-6.47L33.56-6.47Q33.56-4.19 34.05-3.34 34.55-2.48 35.35-2.48ZM50.81 0L56.21-25.37 73.02-25.37 72.38-22.33 64.19-22.33 62.64-15.02 69.47-15.02 68.83-11.94 62-11.94 59.44 0 50.81 0ZM95.43-25.37L94.75-22.33 88.32-22.33 83.57 0 74.94 0 79.69-22.33 73.34-22.33 74.06-25.37 95.43-25.37ZM117.08-19.57L117.08-19.57Q117.08-18.42 116.74-17.5 116.4-16.58 115.81-15.86 115.21-15.14 114.41-14.58 113.61-14.02 112.65-13.54L112.65-13.54Q113.09-13.38 113.69-13.04 114.29-12.7 114.85-12.1 115.41-11.5 115.79-10.57 116.17-9.63 116.17-8.27L116.17-8.27Q116.17-6.47 115.41-4.95 114.65-3.44 113.15-2.34 111.65-1.24 109.47-0.62 107.3 0 104.46 0L104.46 0 92.6 0 97.99-25.37 108.5-25.37Q110.05-25.37 111.59-25.15 113.13-24.93 114.35-24.29 115.57-23.65 116.32-22.51 117.08-21.37 117.08-19.57ZM104.38-14.74L106.22-14.74Q107.1-14.74 107.72-15.26 108.34-15.78 108.74-16.56 109.13-17.34 109.33-18.24 109.53-19.13 109.53-19.85L109.53-19.85Q109.53-21.01 108.99-21.83 108.46-22.65 107.3-22.65L107.3-22.65 106.1-22.65 104.38-14.74ZM101.74-2.52L103.34-2.52Q104.54-2.52 105.34-3.2 106.14-3.87 106.66-4.87 107.18-5.87 107.4-6.97 107.62-8.07 107.62-8.91L107.62-8.91Q107.62-10.31 107.04-11.13 106.46-11.94 105.18-11.94L105.18-11.94 103.7-11.94 101.74-2.52ZM136.82-25.37L139.57 0 130.23 0 129.67-6.35 122.28-6.35 119.44 0 115.57 0 127.35-25.37 136.82-25.37ZM128.47-20.13L123.6-9.27 129.39-9.27 128.47-20.13ZM141.49 0L146.88-25.37 155.55-25.37 150.84-3.36 158.95-3.36 158.27 0 141.49 0ZM160.75 0L166.14-25.37 174.81-25.37 170.09-3.36 178.2-3.36 177.52 0 160.75 0Z" transform="translate(0.2800000011920929, 25.770000457763672)"></path></g> <!----> <!----> <!----> <!----> <!----> <!----> <!----></g></g> <!----></g></g><defs v-gra="od"></defs></svg>